<svg width="284" height="271" viewBox="0 0 284 271" xmlns="http://www.w3.org/2000/svg" xmlns:xlink="http://www.w3.org/1999/xlink"><svg version="1" width="66" height="66" viewBox="-1 -1 68 68" id="comment" x="132" y="89"><path d="M0 28.5V48h51.5l7.2 7.2 7.3 7.2V9H0v19.5z" fill="#1e90ff"/></svg><svg width="66" height="66" viewBox="-1 -1 58.79 58.79" id="desk" x="218"><path d="M20.875 23.107c-.178.011-.756.508-.756.508.311.134.935-.519.756-.508zm.078-.102l-.046.028.045-.018.001-.01zM42.363.76a5.807 5.807 0 1 1 0 11.614 5.807 5.807 0 0 1 0-11.614zM7.503 25.657h1.556v-.748H7.503c-.424 0-.73-.084-.842-.23-.085-.112-.048-.258-.048-.258l.019-4.516h-.748v4.357c-.033.152-.075.517.171.853.262.359.751.542 1.448.542zm49.185 10.612l-.211-1.712c-.834-6.688-.867-6.943-.545-18.729a.748.748 0 0 0-.728-.768c-.392-.026-.756.314-.769.727-.324 11.896-.289 12.161.557 18.952l.212 1.715c.217 1.643.026 2.781-.533 3.219-.651.502-1.79.056-1.868.024-5.501-1.692-12.354 1.804-12.644 1.949a.747.747 0 1 0 .687 1.325c.045-.021 3.104-1.576 6.576-2.096V52.52h-3.107a1.145 1.145 0 1 0 0 2.29h8.826a1.146 1.146 0 0 0 0-2.29h-2.863V40.749a8.962 8.962 0 0 1 2.021.354c.08.032 1.935.794 3.281-.24 1.031-.792 1.406-2.341 1.108-4.594zm-3.556-3.395c-.129-4.919-1.741-9.636-1.868-14.534-.187-7.134-11.119-7.296-11.207-.337-4.184.712-8.363 1.09-12.617.89-3.861-.181-3.873 5.8-.039 5.979 4.468.209 8.9-.215 13.301-.937.452 2.618.987 5.223 1.157 7.871-9.104 3.18-14.15 10.885-15.438 20.677-.009.067-.011.139-.017.209v-21.68h5.741v-5.125h-20.59c.012-.065.017-.141.021-.235l.009-.188c.026-.433.102-.581.526-.663.107-.02.242-.026.378-.024v.36h5.526c.161.03.321.053.47.053.232 0 .432-.053.55-.212.062-.083.062-.198.061-.309 0-.107-.001-.217.051-.282a.557.557 0 0 1 .343-.172 1.533 1.533 0 0 0-.187.708h6.259c0-1.204-1.402-2.18-3.129-2.18-.54 0-1.037.103-1.479.27.103 1.031-.867.931-1.242.855a2.194 2.194 0 0 0-.12.171c-.017-.004-.031-.014-.05-.015a.736.736 0 0 0-.535.247c-.095.116-.093.266-.093.398.001.081.001.165-.024.198-.066.089-.196.118-.345.126v-.862H12.49v.457a2.213 2.213 0 0 0-.413.033c-.537.103-.645.35-.674.83l-.009.192a1.234 1.234 0 0 1-.023.243H0v5.125h3.125v24.858h23.278V53.38c.379 3.83 6.916 3.48 7.492-.904.996-7.575 5.414-12.633 12.842-14.307 3.088.47 6.499-1.285 6.395-5.295zM8.444 9.014l.941 13.417-2.485.174-.941-13.416 2.485-.175z" fill="#1e90ff"/></svg><svg id="facebook" data-name="Layer 1" width="23.23" height="44.01" viewBox="-1 -1 23.23 44.01" x="119.78" y="155"><defs><style>.ccls-1{fill:#fff}</style></defs><title>facebook</title><path class="ccls-1" d="M21.23.31V7H17.4a3.55 3.55 0 0 0-2.85.91 4.26 4.26 0 0 0-.74 2.72v4.77H21l-1 7.47h-6.19V42H6.27V22.85H0v-7.47h6.27V9.85q0-4.69 2.55-7.28A9 9 0 0 1 15.63 0a39.57 39.57 0 0 1 5.6.31z"/></svg><svg width="66" height="66" viewBox="-1 -1 49 49" id="handshake" x="66" y="89"><path d="M31.736 10.307a.97.97 0 0 0-.398-.24l-8.975-2.818c-3.589-1.127-5.924.839-6.553 1.47-.367.367-.648.754-.792 1.091l-3.998 9.404c-.229.538-.151 1.255.208 1.97a3.85 3.85 0 0 0 2.547 2.022c1.239.297 2.524-.106 3.53-1.111.263-.263.487-.553.619-.799l1.344-2.493a5.23 5.23 0 0 1 .88-1.179c1.153-1.154 1.701-.626 1.934-.402 2.011 1.941 12.554 12.529 12.554 12.529.375.375.297 1.086-.172 1.554-.468.467-1.18.547-1.554.174l-2.962-2.961a.972.972 0 0 0-1.38 0 .973.973 0 0 0 0 1.379l2.962 2.963c.374.373.296 1.084-.172 1.551-.468.469-1.181.547-1.553.174l-2.963-2.961a.974.974 0 0 0-1.38 0 .974.974 0 0 0 0 1.38l2.962 2.962c.374.374.293 1.085-.174 1.553-.467.467-1.178.547-1.553.172l-2.962-2.961a.976.976 0 0 0-1.38 1.379l2.962 2.963c.375.375.295 1.086-.172 1.554-.47.468-1.181.547-1.554.173l-3.606-3.609c.515-.774.375-1.897-.389-2.664-.856-.855-2.173-.934-2.935-.17.762-.763.687-2.078-.171-2.935-.858-.856-2.172-.935-2.934-.173.762-.762.685-2.076-.174-2.932-.856-.858-2.17-.936-2.934-.174.764-.762.685-2.076-.172-2.935-.802-.802-1.997-.911-2.774-.3l-5.839-5.839a.975.975 0 1 0-1.381 1.381l5.824 5.823-1.727 1.727c-.762.761-.685 2.075.174 2.934.856.856 2.17.935 2.933.172-.763.763-.685 2.076.173 2.934.856.855 2.171.936 2.934.173-.763.763-.686 2.076.172 2.933.858.858 2.172.936 2.934.174-.762.761-.685 2.074.173 2.933.857.856 2.17.935 2.934.172l1.824-1.823 3.581 3.58c1.143 1.143 3.076 1.063 4.314-.173a3.3 3.3 0 0 0 .97-2.135 3.295 3.295 0 0 0 2.135-.972 3.305 3.305 0 0 0 .974-2.135 3.305 3.305 0 0 0 2.135-.971 3.297 3.297 0 0 0 .97-2.136 3.288 3.288 0 0 0 2.137-.972c1.236-1.236 1.312-3.172.172-4.313l-1.51-1.511 6.2-6.199a.976.976 0 0 0 0-1.38l-8.972-8.977zm14.694 2.182l-7.901-7.901a1.952 1.952 0 0 0-2.762 0l-2.762 2.76a1.953 1.953 0 0 0 0 2.761l7.902 7.903c.763.762 2 .762 2.762 0l2.761-2.761c.761-.763.761-2 0-2.762zm-4.147 4.024a1.602 1.602 0 1 1 0-3.205 1.602 1.602 0 0 1 0 3.205z" fill="#1e90ff"/></svg><svg preserveAspectRatio="xMidYMid" width="152" height="89" viewBox="-1 -1 502 292" id="logo"><defs><style>.ecls-1,.ecls-2{font-size:62.5px}.ecls-2,.ecls-4{text-anchor:middle;font-weight:700}.ecls-2{font-family:&quot;Arial-BoldMT&quot;}.ecls-3,.ecls-4{font-size:200px}.ecls-4{font-family:&quot;BerlinSansFBDemi-Bold&quot;}</style></defs><text x="251" y="70" class="ecls-1" fill="#fffaf0"><tspan x="251" class="ecls-2">Rachunkowość</tspan></text><text x="249" y="257" class="ecls-3" fill="#fffaf0"><tspan x="249" class="ecls-4">MLG</tspan></text></svg><svg data-name="Layer 1" width="66" height="50" viewBox="-1 -1 66 50" id="mail" y="155"><title>mail</title><path class="fcls-1" d="M0 0v8l32 16L64 8V0H0zm0 16v32h64V16L32 32z" fill="#1e90ff"/></svg><svg width="66" height="66" viewBox="-1 -1 485.3 485.3" id="mail2" x="152"><g fill="#1e90ff"><path d="M424.3 57.75H59.1c-32.6 0-59.1 26.5-59.1 59.1v249.6c0 32.6 26.5 59.1 59.1 59.1h365.1c32.6 0 59.1-26.5 59.1-59.1v-249.5c.1-32.6-26.4-59.2-59-59.2zm32.1 308.7c0 17.7-14.4 32.1-32.1 32.1H59.1c-17.7 0-32.1-14.4-32.1-32.1v-249.5c0-17.7 14.4-32.1 32.1-32.1h365.1c17.7 0 32.1 14.4 32.1 32.1v249.5h.1z"/><path d="M304.8 238.55l118.2-106c5.5-5 6-13.5 1-19.1-5-5.5-13.5-6-19.1-1l-163 146.3-31.8-28.4c-.1-.1-.2-.2-.2-.3-.7-.7-1.4-1.3-2.2-1.9L78.3 112.35c-5.6-5-14.1-4.5-19.1 1.1-5 5.6-4.5 14.1 1.1 19.1l119.6 106.9-119.1 111.5c-5.4 5.1-5.7 13.6-.6 19.1 2.7 2.8 6.3 4.3 9.9 4.3 3.3 0 6.6-1.2 9.2-3.6l120.9-113.1 32.8 29.3c2.6 2.3 5.8 3.4 9 3.4s6.5-1.2 9-3.5l33.7-30.2 120.2 114.2c2.6 2.5 6 3.7 9.3 3.7 3.6 0 7.1-1.4 9.8-4.2 5.1-5.4 4.9-14-.5-19.1l-118.7-112.7z"/></g></svg><svg width="66" height="66" viewBox="-1 -1 475.81 475.81" id="phone" x="218" y="66"><path d="M374.456 293.506c-9.7-10.1-21.4-15.5-33.8-15.5-12.3 0-24.1 5.3-34.2 15.4l-31.6 31.5c-2.6-1.4-5.2-2.7-7.7-4-3.6-1.8-7-3.5-9.9-5.3-29.6-18.8-56.5-43.3-82.3-75-12.5-15.8-20.9-29.1-27-42.6 8.2-7.5 15.8-15.3 23.2-22.8 2.8-2.8 5.6-5.7 8.4-8.5 21-21 21-48.2 0-69.2l-27.3-27.3c-3.1-3.1-6.3-6.3-9.3-9.5-6-6.2-12.3-12.6-18.8-18.6-9.7-9.6-21.3-14.7-33.5-14.7s-24 5.1-34 14.7l-.2.2-34 34.3c-12.8 12.8-20.1 28.4-21.7 46.5-2.4 29.2 6.2 56.4 12.8 74.2 16.2 43.7 40.4 84.2 76.5 127.6 43.8 52.3 96.5 93.6 156.7 122.7 23 10.9 53.7 23.8 88 26 2.1.1 4.3.2 6.3.2 23.1 0 42.5-8.3 57.7-24.8.1-.2.3-.3.4-.5 5.2-6.3 11.2-12 17.5-18.1 4.3-4.1 8.7-8.4 13-12.9 9.9-10.3 15.1-22.3 15.1-34.6 0-12.4-5.3-24.3-15.4-34.3l-54.9-55.1zm35.8 105.3c-.1 0-.1.1 0 0-3.9 4.2-7.9 8-12.2 12.2-6.5 6.2-13.1 12.7-19.3 20-10.1 10.8-22 15.9-37.6 15.9-1.5 0-3.1 0-4.6-.1-29.7-1.9-57.3-13.5-78-23.4-56.6-27.4-106.3-66.3-147.6-115.6-34.1-41.1-56.9-79.1-72-119.9-9.3-24.9-12.7-44.3-11.2-62.6 1-11.7 5.5-21.4 13.8-29.7l34.1-34.1c4.9-4.6 10.1-7.1 15.2-7.1 6.3 0 11.4 3.8 14.6 7l.3.3c6.1 5.7 11.9 11.6 18 17.9 3.1 3.2 6.3 6.4 9.5 9.7l27.3 27.3c10.6 10.6 10.6 20.4 0 31-2.9 2.9-5.7 5.8-8.6 8.6-8.4 8.6-16.4 16.6-25.1 24.4-.2.2-.4.3-.5.5-8.6 8.6-7 17-5.2 22.7l.3.9c7.1 17.2 17.1 33.4 32.3 52.7l.1.1c27.6 34 56.7 60.5 88.8 80.8 4.1 2.6 8.3 4.7 12.3 6.7 3.6 1.8 7 3.5 9.9 5.3.4.2.8.5 1.2.7 3.4 1.7 6.6 2.5 9.9 2.5 8.3 0 13.5-5.2 15.2-6.9l34.2-34.2c3.4-3.4 8.8-7.5 15.1-7.5 6.2 0 11.3 3.9 14.4 7.3l.2.2 55.1 55.1c10.3 10.2 10.3 20.7.1 31.3zm-154.2-286.1c26.2 4.4 50 16.8 69 35.8s31.3 42.8 35.8 69c1.1 6.6 6.8 11.2 13.3 11.2.8 0 1.5-.1 2.3-.2 7.4-1.2 12.3-8.2 11.1-15.6-5.4-31.7-20.4-60.6-43.3-83.5s-51.8-37.9-83.5-43.3c-7.4-1.2-14.3 3.7-15.6 11s3.5 14.4 10.9 15.6zm217.2 96.3c-8.9-52.2-33.5-99.7-71.3-137.5s-85.3-62.4-137.5-71.3c-7.3-1.3-14.2 3.7-15.5 11-1.2 7.4 3.7 14.3 11.1 15.6 46.6 7.9 89.1 30 122.9 63.7 33.8 33.8 55.8 76.3 63.7 122.9 1.1 6.6 6.8 11.2 13.3 11.2.8 0 1.5-.1 2.3-.2 7.3-1.1 12.3-8.1 11-15.4z" fill="#1e90ff"/></svg><svg version="1" width="66" height="66" viewBox="-1 -1 49 49" id="star" x="218" y="132"><path d="M21.1 11l-2.4 7.9-8.5.3-8.5.3L8.3 24c3.7 2.5 6.7 4.8 6.7 5.2 0 .4-1.1 4.1-2.4 8.3-1.3 4.1-2.2 7.5-2 7.5.2 0 3.1-2 6.5-4.5s6.6-4.5 7.1-4.5 3.6 2 6.8 4.5c3.2 2.5 6.1 4.5 6.3 4.5.3 0-.5-3.5-1.8-7.7-1.7-5.3-2.1-8.1-1.4-8.9.5-.7 3.5-3 6.6-5.1l5.6-3.8-8.4-.5-8.4-.5-2.5-7.7C25.6 6.5 24.3 3 24 3c-.3 0-1.6 3.6-2.9 8z" fill="#1E90FF"/></svg><svg width="66" height="66" viewBox="-1 -1 49 49" id="task" y="89"><g fill="#1e90ff"><path d="M6.12 38.52V5.136h26.962v28.037l5.137-4.243V2.568A2.567 2.567 0 0 0 35.652 0h-32.1A2.567 2.567 0 0 0 .985 2.568v38.519a2.567 2.567 0 0 0 2.567 2.568H25.96l-3.63-5.135H6.12z"/><path d="M45.613 27.609a1.284 1.284 0 0 0-1.698-.057l-11.778 9.734-7.849-4.709a1.283 1.283 0 0 0-1.709 1.842l8.506 12.037c.238.337.625.539 1.037.543h.012a1.28 1.28 0 0 0 1.035-.525l12.6-17.173a1.287 1.287 0 0 0-.156-1.692zM27.306 8.988H11.897a2.567 2.567 0 0 0 0 5.136h15.408c1.418 0 2.566-1.15 2.566-2.568s-1.147-2.568-2.565-2.568zm0 7.703H11.897a2.567 2.567 0 0 0 0 5.136h15.408a2.566 2.566 0 0 0 2.566-2.568 2.564 2.564 0 0 0-2.565-2.568zm0 7.704H11.897a2.567 2.567 0 0 0 0 5.136h15.408a2.567 2.567 0 0 0 2.566-2.568 2.564 2.564 0 0 0-2.565-2.568z"/></g></svg><svg id="twitter" data-name="Layer 1" width="53.78" height="44.06" viewBox="-1 -1 53.78 44.06" x="66" y="155"><defs><style>.kcls-1{fill:#fff}</style></defs><title>twitter</title><path class="kcls-1" d="M51.78 5a22.23 22.23 0 0 1-5.32 5.52v1.38a30.15 30.15 0 0 1-1.25 8.53 30.81 30.81 0 0 1-3.76 8.13 32.1 32.1 0 0 1-6.06 6.92 27 27 0 0 1-8.48 4.8 31 31 0 0 1-10.62 1.8A29.47 29.47 0 0 1 0 37.29a22.71 22.71 0 0 0 2.56.13 20.78 20.78 0 0 0 13.17-4.53 10.63 10.63 0 0 1-9.92-7.36 13.45 13.45 0 0 0 2 .16 11 11 0 0 0 2.79-.36 10.44 10.44 0 0 1-6.09-3.67 10.25 10.25 0 0 1-2.41-6.75v-.13a10.52 10.52 0 0 0 4.8 1.34 10.6 10.6 0 0 1-3.45-3.78 10.34 10.34 0 0 1-1.28-5.07 10.4 10.4 0 0 1 1.45-5.33 30.08 30.08 0 0 0 9.71 7.83A29.57 29.57 0 0 0 25.53 13a11.79 11.79 0 0 1-.26-2.43 10.23 10.23 0 0 1 3-7.48 10.64 10.64 0 0 1 15 0l.21.22A20.81 20.81 0 0 0 50.33.8a10.3 10.3 0 0 1-4.67 5.85A21.14 21.14 0 0 0 51.78 5z"/></svg><svg width="66" height="66" viewBox="-1 -1 57 57" id="user" y="205"><path d="M55 27.5C55 12.337 42.663 0 27.5 0S0 12.337 0 27.5c0 8.009 3.444 15.228 8.926 20.258l-.026.023.892.752c.058.049.121.089.179.137.474.393.965.766 1.465 1.127.162.117.324.234.489.348.534.368 1.082.717 1.642 1.048.122.072.245.142.368.212a27.44 27.44 0 0 0 1.88.98l.142.064a27.252 27.252 0 0 0 6.651 2.105l.184.033c.724.125 1.456.225 2.197.292.09.008.18.013.271.021.738.061 1.484.1 2.24.1.749 0 1.488-.039 2.222-.098l.279-.021a27.808 27.808 0 0 0 2.178-.287l.187-.034a27.251 27.251 0 0 0 6.557-2.055c.076-.035.153-.068.229-.104a27.639 27.639 0 0 0 2.25-1.189 27.514 27.514 0 0 0 1.581-1c.185-.126.366-.259.549-.391.439-.316.87-.642 1.289-.983.093-.075.193-.14.284-.217l.915-.764-.027-.023C51.523 42.802 55 35.55 55 27.5zm-53 0C2 13.439 13.439 2 27.5 2S53 13.439 53 27.5c0 7.577-3.325 14.389-8.589 19.063a7.494 7.494 0 0 0-.893-.537l-8.467-4.233a2.217 2.217 0 0 1-1.232-1.993v-2.957c.196-.242.403-.516.617-.817a20.378 20.378 0 0 0 2.616-5.123 3.63 3.63 0 0 0 2.085-3.289v-3.545c0-.867-.318-1.708-.887-2.369v-4.667c.052-.519.236-3.448-1.883-5.864C34.524 9.065 31.541 8 27.5 8s-7.024 1.065-8.867 3.168c-2.119 2.416-1.935 5.345-1.883 5.864v4.667a3.644 3.644 0 0 0-.887 2.369v3.545c0 1.101.494 2.128 1.34 2.821.81 3.173 2.477 5.575 3.093 6.389v2.894a2.23 2.23 0 0 1-1.162 1.958l-7.907 4.313a7.227 7.227 0 0 0-.752.476C5.276 41.792 2 35.022 2 27.5zm40.459 20.632c-.35.254-.706.5-1.067.735-.166.108-.331.216-.5.321-.472.292-.952.57-1.442.83-.108.057-.217.111-.326.167a25.481 25.481 0 0 1-3.488 1.476l-.127.043c-.627.208-1.262.393-1.904.552l-.006.001a25.59 25.59 0 0 1-1.964.402l-.054.01c-.621.101-1.247.174-1.875.229-.111.01-.222.017-.334.025-.621.047-1.245.077-1.872.077a25.43 25.43 0 0 1-1.895-.078c-.109-.008-.218-.015-.326-.025a25.862 25.862 0 0 1-1.89-.233l-.084-.015a25.405 25.405 0 0 1-3.89-.971l-.118-.04a25.86 25.86 0 0 1-1.862-.713l-.013-.006a26.094 26.094 0 0 1-1.705-.816c-.073-.038-.147-.074-.219-.113a25.7 25.7 0 0 1-1.939-1.155 25.417 25.417 0 0 1-1.338-.933l-.133-.104.096-.054 7.907-4.313a4.229 4.229 0 0 0 2.205-3.714l-.001-3.602-.23-.278c-.022-.025-2.184-2.655-3.001-6.216l-.091-.396-.341-.221a1.657 1.657 0 0 1-.769-1.392v-3.545c0-.465.197-.898.557-1.223l.33-.298v-5.57l-.009-.131c-.003-.024-.298-2.429 1.396-4.36C21.583 10.837 24.061 10 27.5 10c3.426 0 5.896.83 7.346 2.466 1.692 1.911 1.415 4.361 1.413 4.381l-.009 5.701.33.298c.359.324.557.758.557 1.223v3.545a1.67 1.67 0 0 1-1.181 1.575l-.497.153-.16.495a18.5 18.5 0 0 1-2.496 5.032c-.262.37-.517.698-.736.949l-.248.283V39.8c0 1.612.896 3.062 2.338 3.782l8.467 4.233.16.083c-.107.081-.217.156-.325.234z" fill="#1e90ff"/></svg></svg>