<?xml version="1.0" standalone="no"?>
<!DOCTYPE svg PUBLIC "-//W3C//DTD SVG 20010904//EN"
 "http://www.w3.org/TR/2001/REC-SVG-20010904/DTD/svg10.dtd">
<svg version="1.0" xmlns="http://www.w3.org/2000/svg"
 width="64" height="64" viewBox="0 0 47.000000 47.000000"
 preserveAspectRatio="xMidYMid meet">
<metadata>
Created by potrace 1.14, written by Peter Selinger 2001-2017
</metadata>
<g transform="translate(0.000000,47.000000) scale(0.100000,-0.100000)"
fill="#1E90FF" stroke="none">
<path d="M211 360 l-24 -79 -85 -3 -85 -3 66 -45 c37 -25 67 -48 67 -52 0 -4
-11 -41 -24 -83 -13 -41 -22 -75 -20 -75 2 0 31 20 65 45 34 25 66 45 71 45 5
0 36 -20 68 -45 32 -25 61 -45 63 -45 3 0 -5 35 -18 77 -17 53 -21 81 -14 89
5 7 35 30 66 51 l56 38 -84 5 -84 5 -25 77 c-14 43 -27 78 -30 78 -3 0 -16
-36 -29 -80z"/>
</g>
</svg>
